<svg id="visual" viewBox="0 0 900 450" width="900" height="450" xmlns="http://www.w3.org/2000/svg" xmlns:xlink="http://www.w3.org/1999/xlink" version="1.1"><rect x="0" y="0" width="900" height="450" fill="#001829"></rect><path d="M0 270L129 286L257 310L386 264L514 293L643 303L771 268L900 312L900 451L771 451L643 451L514 451L386 451L257 451L129 451L0 451Z" fill="#6600ff"></path><path d="M0 324L129 324L257 348L386 311L514 337L643 314L771 320L900 324L900 451L771 451L643 451L514 451L386 451L257 451L129 451L0 451Z" fill="#2b2ccf"></path><path d="M0 369L129 371L257 376L386 380L514 382L643 341L771 358L900 382L900 451L771 451L643 451L514 451L386 451L257 451L129 451L0 451Z" fill="#002f99"></path><path d="M0 390L129 403L257 382L386 403L514 382L643 381L771 382L900 397L900 451L771 451L643 451L514 451L386 451L257 451L129 451L0 451Z" fill="#00255e"></path><path d="M0 401L129 423L257 399L386 409L514 408L643 424L771 400L900 423L900 451L771 451L643 451L514 451L386 451L257 451L129 451L0 451Z" fill="#001122"></path></svg>