<svg id="visual" viewBox="0 0 900 600" width="900" height="600" xmlns="http://www.w3.org/2000/svg" xmlns:xlink="http://www.w3.org/1999/xlink" version="1.1"><rect x="0" y="0" width="900" height="600" fill="#001829"></rect><path d="M0 406L21.5 405.7C43 405.3 86 404.7 128.8 395.7C171.7 386.7 214.3 369.3 257.2 362.8C300 356.3 343 360.7 385.8 376.8C428.7 393 471.3 421 514.2 432.8C557 444.7 600 440.3 642.8 434.7C685.7 429 728.3 422 771.2 416.8C814 411.7 857 408.3 878.5 406.7L900 405L900 601L878.5 601C857 601 814 601 771.2 601C728.3 601 685.7 601 642.8 601C600 601 557 601 514.2 601C471.3 601 428.7 601 385.8 601C343 601 300 601 257.2 601C214.3 601 171.7 601 128.8 601C86 601 43 601 21.5 601L0 601Z" fill="#4facf7"></path><path d="M0 453L21.5 453C43 453 86 453 128.8 450.2C171.7 447.3 214.3 441.7 257.2 441.8C300 442 343 448 385.8 454.7C428.7 461.3 471.3 468.7 514.2 471.3C557 474 600 472 642.8 470.3C685.7 468.7 728.3 467.3 771.2 459.8C814 452.3 857 438.7 878.5 431.8L900 425L900 601L878.5 601C857 601 814 601 771.2 601C728.3 601 685.7 601 642.8 601C600 601 557 601 514.2 601C471.3 601 428.7 601 385.8 601C343 601 300 601 257.2 601C214.3 601 171.7 601 128.8 601C86 601 43 601 21.5 601L0 601Z" fill="#2b9dfc"></path><path d="M0 455L21.5 456.8C43 458.7 86 462.3 128.8 470.7C171.7 479 214.3 492 257.2 492.8C300 493.7 343 482.3 385.8 481.7C428.7 481 471.3 491 514.2 490.3C557 489.7 600 478.3 642.8 472.2C685.7 466 728.3 465 771.2 466.2C814 467.3 857 470.7 878.5 472.3L900 474L900 601L878.5 601C857 601 814 601 771.2 601C728.3 601 685.7 601 642.8 601C600 601 557 601 514.2 601C471.3 601 428.7 601 385.8 601C343 601 300 601 257.2 601C214.3 601 171.7 601 128.8 601C86 601 43 601 21.5 601L0 601Z" fill="#008cff"></path><path d="M0 487L21.5 486.8C43 486.7 86 486.3 128.8 489C171.7 491.7 214.3 497.3 257.2 497.2C300 497 343 491 385.8 492.5C428.7 494 471.3 503 514.2 504.2C557 505.3 600 498.7 642.8 494.8C685.7 491 728.3 490 771.2 496.2C814 502.3 857 515.7 878.5 522.3L900 529L900 601L878.5 601C857 601 814 601 771.2 601C728.3 601 685.7 601 642.8 601C600 601 557 601 514.2 601C471.3 601 428.7 601 385.8 601C343 601 300 601 257.2 601C214.3 601 171.7 601 128.8 601C86 601 43 601 21.5 601L0 601Z" fill="#007aff"></path><path d="M0 564L21.5 562.7C43 561.3 86 558.7 128.8 558.2C171.7 557.7 214.3 559.3 257.2 559.2C300 559 343 557 385.8 556.2C428.7 555.3 471.3 555.7 514.2 554.2C557 552.7 600 549.3 642.8 549C685.7 548.7 728.3 551.3 771.2 548.2C814 545 857 536 878.5 531.5L900 527L900 601L878.5 601C857 601 814 601 771.2 601C728.3 601 685.7 601 642.8 601C600 601 557 601 514.2 601C471.3 601 428.7 601 385.8 601C343 601 300 601 257.2 601C214.3 601 171.7 601 128.8 601C86 601 43 601 21.5 601L0 601Z" fill="#0066ff"></path></svg>