<svg id="visual" viewBox="0 0 900 450" width="900" height="450" xmlns="http://www.w3.org/2000/svg" xmlns:xlink="http://www.w3.org/1999/xlink" version="1.1"><g stroke-width="1" stroke-linejoin="bevel"><path d="M489 187L488 121L437 123Z" fill="#14479d" stroke="#14479d"></path><path d="M437 123L365 144L489 187Z" fill="#003f87" stroke="#003f87"></path><path d="M489 187L580 209L488 121Z" fill="#003771" stroke="#003771"></path><path d="M365 144L373 283L489 187Z" fill="#003771" stroke="#003771"></path><path d="M489 187L501 306L580 209Z" fill="#001b30" stroke="#001b30"></path><path d="M422 0L319 117L365 144Z" fill="#002445" stroke="#002445"></path><path d="M365 144L319 117L330 169Z" fill="#002e5b" stroke="#002e5b"></path><path d="M422 0L365 144L437 123Z" fill="#294eb3" stroke="#294eb3"></path><path d="M373 283L501 306L489 187Z" fill="#003771" stroke="#003771"></path><path d="M330 169L373 283L365 144Z" fill="#003771" stroke="#003771"></path><path d="M537 0L422 0L488 121Z" fill="#002445" stroke="#002445"></path><path d="M488 121L422 0L437 123Z" fill="#14479d" stroke="#14479d"></path><path d="M638 81L537 0L488 121Z" fill="#003771" stroke="#003771"></path><path d="M580 209L638 81L488 121Z" fill="#14479d" stroke="#14479d"></path><path d="M376 334L514 345L501 306Z" fill="#003771" stroke="#003771"></path><path d="M501 306L635 284L580 209Z" fill="#00101c" stroke="#00101c"></path><path d="M289 352L376 334L373 283Z" fill="#14479d" stroke="#14479d"></path><path d="M373 283L376 334L501 306Z" fill="#003f87" stroke="#003f87"></path><path d="M580 209L668 120L638 81Z" fill="#002445" stroke="#002445"></path><path d="M677 148L668 120L580 209Z" fill="#3f54c9" stroke="#3f54c9"></path><path d="M638 81L610 0L537 0Z" fill="#002445" stroke="#002445"></path><path d="M702 0L610 0L638 81Z" fill="#002e5b" stroke="#002e5b"></path><path d="M635 284L677 148L580 209Z" fill="#3f54c9" stroke="#3f54c9"></path><path d="M514 345L635 284L501 306Z" fill="#715df2" stroke="#715df2"></path><path d="M188 158L269 299L330 169Z" fill="#002e5b" stroke="#002e5b"></path><path d="M330 169L269 299L373 283Z" fill="#715df2" stroke="#715df2"></path><path d="M422 0L266 0L319 117Z" fill="#294eb3" stroke="#294eb3"></path><path d="M319 117L188 158L330 169Z" fill="#3f54c9" stroke="#3f54c9"></path><path d="M630 362L685 286L635 284Z" fill="#002445" stroke="#002445"></path><path d="M635 284L685 286L677 148Z" fill="#00101c" stroke="#00101c"></path><path d="M269 299L289 352L373 283Z" fill="#002e5b" stroke="#002e5b"></path><path d="M407 450L488 450L514 345Z" fill="#294eb3" stroke="#294eb3"></path><path d="M587 450L630 362L514 345Z" fill="#003771" stroke="#003771"></path><path d="M514 345L630 362L635 284Z" fill="#002e5b" stroke="#002e5b"></path><path d="M172 106L188 158L319 117Z" fill="#002445" stroke="#002445"></path><path d="M269 299L204 304L289 352Z" fill="#14479d" stroke="#14479d"></path><path d="M266 0L231 0L319 117Z" fill="#001b30" stroke="#001b30"></path><path d="M797 80L668 120L677 148Z" fill="#001b30" stroke="#001b30"></path><path d="M797 80L702 0L668 120Z" fill="#294eb3" stroke="#294eb3"></path><path d="M668 120L702 0L638 81Z" fill="#14479d" stroke="#14479d"></path><path d="M231 0L172 106L319 117Z" fill="#002e5b" stroke="#002e5b"></path><path d="M407 450L514 345L376 334Z" fill="#5759de" stroke="#5759de"></path><path d="M176 328L204 304L129 280Z" fill="#14479d" stroke="#14479d"></path><path d="M188 158L204 304L269 299Z" fill="#715df2" stroke="#715df2"></path><path d="M300 450L376 334L289 352Z" fill="#001b30" stroke="#001b30"></path><path d="M300 450L407 450L376 334Z" fill="#715df2" stroke="#715df2"></path><path d="M798 247L778 177L685 286Z" fill="#002445" stroke="#002445"></path><path d="M685 286L778 177L677 148Z" fill="#3f54c9" stroke="#3f54c9"></path><path d="M630 362L723 342L685 286Z" fill="#5759de" stroke="#5759de"></path><path d="M739 450L723 342L630 362Z" fill="#14479d" stroke="#14479d"></path><path d="M488 450L587 450L514 345Z" fill="#001b30" stroke="#001b30"></path><path d="M129 280L204 304L188 158Z" fill="#294eb3" stroke="#294eb3"></path><path d="M204 304L176 328L289 352Z" fill="#00101c" stroke="#00101c"></path><path d="M227 450L300 450L289 352Z" fill="#3f54c9" stroke="#3f54c9"></path><path d="M778 177L797 80L677 148Z" fill="#14479d" stroke="#14479d"></path><path d="M723 342L798 247L685 286Z" fill="#003f87" stroke="#003f87"></path><path d="M778 177L900 110L797 80Z" fill="#001b30" stroke="#001b30"></path><path d="M797 80L781 0L702 0Z" fill="#715df2" stroke="#715df2"></path><path d="M94 209L129 280L188 158Z" fill="#002e5b" stroke="#002e5b"></path><path d="M172 106L94 209L188 158Z" fill="#003f87" stroke="#003f87"></path><path d="M70 56L94 209L172 106Z" fill="#002445" stroke="#002445"></path><path d="M176 328L227 450L289 352Z" fill="#14479d" stroke="#14479d"></path><path d="M108 377L227 450L176 328Z" fill="#002e5b" stroke="#002e5b"></path><path d="M587 450L739 450L630 362Z" fill="#3f54c9" stroke="#3f54c9"></path><path d="M723 342L821 388L798 247Z" fill="#002e5b" stroke="#002e5b"></path><path d="M71 0L70 56L172 106Z" fill="#715df2" stroke="#715df2"></path><path d="M0 326L108 377L129 280Z" fill="#001b30" stroke="#001b30"></path><path d="M129 280L108 377L176 328Z" fill="#003f87" stroke="#003f87"></path><path d="M0 231L129 280L94 209Z" fill="#14479d" stroke="#14479d"></path><path d="M739 450L764 450L723 342Z" fill="#3f54c9" stroke="#3f54c9"></path><path d="M231 0L71 0L172 106Z" fill="#14479d" stroke="#14479d"></path><path d="M764 450L821 388L723 342Z" fill="#003f87" stroke="#003f87"></path><path d="M798 247L900 179L778 177Z" fill="#003771" stroke="#003771"></path><path d="M900 268L900 179L798 247Z" fill="#002e5b" stroke="#002e5b"></path><path d="M797 80L900 0L781 0Z" fill="#5759de" stroke="#5759de"></path><path d="M900 179L900 110L778 177Z" fill="#003f87" stroke="#003f87"></path><path d="M900 357L900 268L798 247Z" fill="#14479d" stroke="#14479d"></path><path d="M900 110L900 0L797 80Z" fill="#002445" stroke="#002445"></path><path d="M70 56L0 178L94 209Z" fill="#5759de" stroke="#5759de"></path><path d="M0 52L0 178L70 56Z" fill="#002445" stroke="#002445"></path><path d="M0 178L0 231L94 209Z" fill="#001b30" stroke="#001b30"></path><path d="M0 450L98 450L108 377Z" fill="#715df2" stroke="#715df2"></path><path d="M108 377L98 450L227 450Z" fill="#715df2" stroke="#715df2"></path><path d="M71 0L0 52L70 56Z" fill="#294eb3" stroke="#294eb3"></path><path d="M900 450L900 357L821 388Z" fill="#294eb3" stroke="#294eb3"></path><path d="M821 388L900 357L798 247Z" fill="#3f54c9" stroke="#3f54c9"></path><path d="M71 0L0 0L0 52Z" fill="#294eb3" stroke="#294eb3"></path><path d="M0 231L0 326L129 280Z" fill="#003771" stroke="#003771"></path><path d="M764 450L900 450L821 388Z" fill="#14479d" stroke="#14479d"></path><path d="M0 326L0 450L108 377Z" fill="#5759de" stroke="#5759de"></path></g></svg>