<svg id="visual" viewBox="0 0 900 450" width="900" height="450" xmlns="http://www.w3.org/2000/svg" xmlns:xlink="http://www.w3.org/1999/xlink" version="1.1"><path d="M0 46L13.7 52C27.3 58 54.7 70 82 73.8C109.3 77.7 136.7 73.3 163.8 70.3C191 67.3 218 65.7 245.2 64.8C272.3 64 299.7 64 327 68.5C354.3 73 381.7 82 409 91C436.3 100 463.7 109 491 111.3C518.3 113.7 545.7 109.3 573 99.7C600.3 90 627.7 75 654.8 68.2C682 61.3 709 62.7 736.2 74.7C763.3 86.7 790.7 109.3 818 107.2C845.3 105 872.7 78 886.3 64.5L900 51L900 0L886.3 0C872.7 0 845.3 0 818 0C790.7 0 763.3 0 736.2 0C709 0 682 0 654.8 0C627.7 0 600.3 0 573 0C545.7 0 518.3 0 491 0C463.7 0 436.3 0 409 0C381.7 0 354.3 0 327 0C299.7 0 272.3 0 245.2 0C218 0 191 0 163.8 0C136.7 0 109.3 0 82 0C54.7 0 27.3 0 13.7 0L0 0Z" fill="#142499"></path><path d="M0 226L13.7 214.8C27.3 203.7 54.7 181.3 82 175.3C109.3 169.3 136.7 179.7 163.8 181.2C191 182.7 218 175.3 245.2 179.8C272.3 184.3 299.7 200.7 327 204.3C354.3 208 381.7 199 409 204.3C436.3 209.7 463.7 229.3 491 225.7C518.3 222 545.7 195 573 197.2C600.3 199.3 627.7 230.7 654.8 226.2C682 221.7 709 181.3 736.2 182.8C763.3 184.3 790.7 227.7 818 234.3C845.3 241 872.7 211 886.3 196L900 181L900 49L886.3 62.5C872.7 76 845.3 103 818 105.2C790.7 107.3 763.3 84.7 736.2 72.7C709 60.7 682 59.3 654.8 66.2C627.7 73 600.3 88 573 97.7C545.7 107.3 518.3 111.7 491 109.3C463.7 107 436.3 98 409 89C381.7 80 354.3 71 327 66.5C299.7 62 272.3 62 245.2 62.8C218 63.7 191 65.3 163.8 68.3C136.7 71.3 109.3 75.7 82 71.8C54.7 68 27.3 56 13.7 50L0 44Z" fill="#1e28b4"></path><path d="M0 366L13.7 361.5C27.3 357 54.7 348 82 341.2C109.3 334.3 136.7 329.7 163.8 328.8C191 328 218 331 245.2 329.5C272.3 328 299.7 322 327 320.5C354.3 319 381.7 322 409 325C436.3 328 463.7 331 491 329.5C518.3 328 545.7 322 573 323.5C600.3 325 627.7 334 654.8 335.5C682 337 709 331 736.2 334C763.3 337 790.7 349 818 358C845.3 367 872.7 373 886.3 376L900 379L900 179L886.3 194C872.7 209 845.3 239 818 232.3C790.7 225.7 763.3 182.3 736.2 180.8C709 179.3 682 219.7 654.8 224.2C627.7 228.7 600.3 197.3 573 195.2C545.7 193 518.3 220 491 223.7C463.7 227.3 436.3 207.7 409 202.3C381.7 197 354.3 206 327 202.3C299.7 198.7 272.3 182.3 245.2 177.8C218 173.3 191 180.7 163.8 179.2C136.7 177.7 109.3 167.3 82 173.3C54.7 179.3 27.3 201.7 13.7 212.8L0 224Z" fill="#2a2ccf"></path><path d="M0 397L13.7 396.3C27.3 395.7 54.7 394.3 82 396.7C109.3 399 136.7 405 163.8 408C191 411 218 411 245.2 411.7C272.3 412.3 299.7 413.7 327 412.2C354.3 410.7 381.7 406.3 409 405.7C436.3 405 463.7 408 491 405C518.3 402 545.7 393 573 393C600.3 393 627.7 402 654.8 405.7C682 409.3 709 407.7 736.2 406.8C763.3 406 790.7 406 818 408.3C845.3 410.7 872.7 415.3 886.3 417.7L900 420L900 377L886.3 374C872.7 371 845.3 365 818 356C790.7 347 763.3 335 736.2 332C709 329 682 335 654.8 333.5C627.7 332 600.3 323 573 321.5C545.7 320 518.3 326 491 327.5C463.7 329 436.3 326 409 323C381.7 320 354.3 317 327 318.5C299.7 320 272.3 326 245.2 327.5C218 329 191 326 163.8 326.8C136.7 327.7 109.3 332.3 82 339.2C54.7 346 27.3 355 13.7 359.5L0 364Z" fill="#524dda"></path><path d="M0 451L13.7 451C27.3 451 54.7 451 82 451C109.3 451 136.7 451 163.8 451C191 451 218 451 245.2 451C272.3 451 299.7 451 327 451C354.3 451 381.7 451 409 451C436.3 451 463.7 451 491 451C518.3 451 545.7 451 573 451C600.3 451 627.7 451 654.8 451C682 451 709 451 736.2 451C763.3 451 790.7 451 818 451C845.3 451 872.7 451 886.3 451L900 451L900 418L886.3 415.7C872.7 413.3 845.3 408.7 818 406.3C790.7 404 763.3 404 736.2 404.8C709 405.7 682 407.3 654.8 403.7C627.7 400 600.3 391 573 391C545.7 391 518.3 400 491 403C463.7 406 436.3 403 409 403.7C381.7 404.3 354.3 408.7 327 410.2C299.7 411.7 272.3 410.3 245.2 409.7C218 409 191 409 163.8 406C136.7 403 109.3 397 82 394.7C54.7 392.3 27.3 393.7 13.7 394.3L0 395Z" fill="#716be3"></path></svg>